<svg id="Layer_1" xmlns="http://www.w3.org/2000/svg" viewBox="0 0 562 107">
  <style>
    .st0{fill:#FFFFFF;} .st1{fill-rule:evenodd;clip-rule:evenodd;fill:#FFFFFF;} .st2{fill-rule:evenodd;clip-rule:evenodd;fill:#85B8BD;} .st3{fill-rule:evenodd;clip-rule:evenodd;fill:#D78132;} .st4{fill-rule:evenodd;clip-rule:evenodd;fill:#F8A23B;} .st5{fill-rule:evenodd;clip-rule:evenodd;fill:#C36A30;} .st6{fill-rule:evenodd;clip-rule:evenodd;fill:#E57A31;} .st7{opacity:0.5;fill-rule:evenodd;clip-rule:evenodd;fill:#72BDC0;}
  </style>
  <path class="st0" d="M162.54 56.96c0 2.38-.65 5.9-2.88 9.07-3.6 4.6-7.85 5.4-12.02 5.48H131.3V20.25h15.98c3.1 0 5.32.5 8.2 2 4.54 2.17 6.4 8.87 6.27 12.33v.86c0 3.17-1.8 7.2-5.2 9.58 3.7 2.38 6 6.34 6 10.3v1.66zM152.4 34.64c-.08-2.23-.73-3.6-1.88-4.25-1.16-.66-2.24-.95-3.32-.87h-6.55v11h7c2.22.1 4.67-.85 4.74-5.24v-.66zm.78 20.74c-.07-2.3-.72-3.82-1.87-4.54-1.07-.8-2.22-1.15-3.45-1.08h-7.2v12.46h6.84c1.07.07 2.3-.3 3.6-.94 1.3-.65 2-2.16 2.08-4.4v-1.5zM177.6 59.77l-3.03 11.74h-9.36l13.62-51.26h11.38l13.6 51.27h-9.36l-3.02-11.73H177.6zm6.9-27.8l-4.6 18.5h9.22l-4.6-18.5zM239.4 38.24c0 2.52-.66 6.05-2.75 9.2-1 1.6-2.23 2.75-3.67 3.54-2.88 1.52-5.1 2.02-8.07 2.02H218v18.5h-9.36V20.25h16c3.08 0 5.3.5 8.2 2 4.67 2.25 6.76 9.3 6.55 12.6v3.4zM230.1 35c-.07-2.3-.8-3.82-2.1-4.47-1.2-.72-2.44-1.08-3.6-1H218V43.7h6.55c1.16.08 2.3-.2 3.53-.92 1.23-.73 1.95-2.24 2.02-4.6V35zM277.5 62.22V20.24h9.36V71.5H244.8V20.25h9.37v41.98h7V20.24h9.35v41.98h6.98zM304.13 59.77L301.1 71.5h-9.36l13.6-51.26h11.4l13.6 51.27h-9.36l-3.03-11.73h-13.82zm6.9-27.8l-4.6 18.5h9.22l-4.6-18.5zM366.42 56.96c0 2.38-.65 5.9-2.88 9.07-3.6 4.6-7.85 5.4-12.02 5.48h-16.35V20.25h16c3.08 0 5.3.5 8.2 2 4.53 2.17 6.4 8.87 6.26 12.33v.86c0 3.17-1.8 7.2-5.18 9.58 3.67 2.38 5.97 6.34 5.97 10.3v1.66zm-10.15-22.32c-.07-2.23-.72-3.6-1.87-4.25-1.16-.66-2.24-.95-3.32-.87h-6.55v11h7c2.22.1 4.67-.85 4.74-5.24v-.66zm.8 20.74c-.08-2.3-.73-3.82-1.88-4.54-1.1-.8-2.24-1.15-3.47-1.08h-7.2v12.46h6.84c1.08.07 2.3-.3 3.6-.94 1.3-.65 2.02-2.16 2.1-4.4v-1.5zM403 55.95c0 3.17-.87 7.06-3.24 10.44-1.16 1.65-2.52 2.95-4.03 3.74-2.96 1.5-5.26 2-8.2 2-2.97 0-5.2-.5-8.3-2-4.67-2.38-7.34-9.36-7.12-12.9V34.43c0-2.52.8-5.9 3.03-9 3.9-4.75 8.28-5.4 12.46-5.54 2.94 0 5.17.5 8.13 2.23 4.6 2.4 7.48 10.02 7.27 13.76h-9.36c-.15-2.88-.94-4.75-2.38-5.6-1.37-.88-2.6-1.24-3.67-1.17-1.16-.08-2.46.28-3.83 1-1.37.65-2.16 2.16-2.3 4.47v22.68c.14 2.37.93 3.9 2.3 4.68 1.37.72 2.67 1.08 3.82 1 1.2.08 2.5-.28 3.88-1.22 1.36-.92 2.08-2.87 2.16-5.75H403zM439.65 56.9c0 2.5-.72 5.97-2.8 9.13-1.1 1.5-2.3 2.67-3.82 3.46-2.95 1.5-5.2 2-8.28 2h-16.13V20.25h9.36v18.5h6.98c3.1 0 5.26.5 8.14 2.02 4.54 2.3 6.77 9.22 6.55 12.67v3.46zm-9.36-3.4c-.08-2.3-.8-3.8-2.02-4.46-1.23-.72-2.45-1.08-3.53-1h-6.77V62.2h6.62c1.08.07 2.3-.22 3.6-.87 1.3-.72 2.02-2.23 2.1-4.6V53.5zM454.47 49.18V71.5h-9.36V20.25h9.37V39.9h1.44l13.26-19.66h10.94L463.6 44.2l16.93 27.3h-11.3L455.9 49.2h-1.43zM485.34 71.5V20.25h9.36v29.3l12.46-29.3h9.3V71.5h-9.37V42.8L494.76 71.5h-9.43zM523.9 71.5V20.25h9.36v29.3l12.45-29.3h9.3V71.5h-9.36V42.8l-12.3 28.73h-9.44zm3.52-67.25h7.35c.07 2.95 1.37 5.2 4.6 5.26 3.25-.06 4.54-2.3 4.6-5.25h7.36c-.36 8.28-5.7 11.8-11.95 11.8s-11.6-3.52-11.96-11.8z"/>
  <g>
    <path class="st0" d="M205.8 94.04h1.22l4.13-5.13h1.48l-4.45 5.55 4.56 6.05h-1.5l-4-5.28h-1.43v5.28h-1.2v-5.28h-1.48l-3.98 5.28h-1.5l4.56-6.05-4.45-5.54h1.48l4.1 5.14h1.27V88.9h1.2v5.14zM221.2 100.5V88.9h1.2V99l5.44-10.1h1.63v11.6h-1.2v-9.92l-5.38 9.92h-1.7zM237.88 88.9h9.18v1.2h-3.98v10.4h-1.2V90.1h-4v-1.2zM256.88 97.73c0 .5-.07.95-.22 1.32-.13.38-.37.73-.75 1.08-.36.33-.9.5-1.66.48h-.4v-1.17h.3c.85.02 1.5-.38 1.53-1.6v-8.92h7.6v11.6h-1.22V90.1h-5.17v7.63zM280.75 96.6c0 2.54-1.7 4.12-4.24 4.12-2.6 0-4.26-1.56-4.26-4.1V92.8c0-2.5 1.72-4.1 4.27-4.1 2.58 0 4.25 1.57 4.25 4.1v3.8zm-1.2-3.8c.02-.7-.14-1.27-.47-1.7-.64-.9-1.36-1.2-2.57-1.2-1.88 0-3.05 1.05-3.05 2.9v3.8c-.02.7.1 1.3.44 1.75.67.88 1.38 1.2 2.6 1.2 1.88 0 3.04-1.1 3.04-2.94v-3.8zM289.76 88.9h4.46c2.1 0 3.68.84 3.74 3.1-.06 1.26-.57 2.08-1.45 2.5 1.07.46 1.73 1.36 1.73 2.7 0 2.18-1.43 3.3-4.07 3.3h-4.4V88.9zm4.4 1.2h-3.2v3.82h3.6c1.42.03 2.15-.5 2.2-1.9-.05-1.44-1.13-1.95-2.6-1.92zm-.07 9.22c.45 0 .87-.05 1.22-.1.38-.1.75-.28 1.12-.52.38-.24.58-.75.58-1.5-.03-1.43-.97-2.15-2.47-2.15h-3.58v4.27h3.12zM307.12 100.5V88.9h1.2V99l5.44-10.1h1.63v11.6h-1.22v-9.92l-5.37 9.92h-1.68zM324.6 100.5V88.9h1.2V99l5.43-10.1h1.63v11.6h-1.2v-9.92l-5.38 9.92h-1.7zm1.07-16.08h1.08c.2 1.17.9 1.76 1.98 1.76 1.07 0 1.78-.6 1.98-1.76h1.1c-.26 1.87-1.58 2.75-3.07 2.75-1.5 0-2.82-.88-3.06-2.75zM353.96 94.04h1.65l4.15-5.13h1.47l-4.44 5.55 4.55 6.05h-1.5l-4-5.28h-1.87v5.28h-1.2V88.9h1.2v5.14zM377.44 96.6c0 2.54-1.72 4.12-4.25 4.12-2.6 0-4.28-1.56-4.28-4.1V92.8c0-2.5 1.72-4.1 4.27-4.1 2.57 0 4.24 1.57 4.24 4.1v3.8zm-1.2-3.8c0-.7-.14-1.27-.47-1.7-.64-.9-1.37-1.2-2.58-1.2-1.9 0-3.07 1.05-3.07 2.9v3.8c-.02.7.1 1.3.44 1.75.7.88 1.4 1.2 2.62 1.2 1.86 0 3.03-1.1 3.03-2.94v-3.8zM386.44 100.5V88.9h1.74l3.06 7.42 3.05-7.4h1.78v11.58h-1.2v-9.9l-3.05 7.35h-1.14l-3.05-7.35v9.9h-1.2zM405.28 88.9h8.25v11.6h-1.2V90.1h-5.84v10.4h-1.22V88.9zM424.87 97.73c0 .5-.06.95-.22 1.32-.13.38-.37.73-.75 1.08-.37.33-.92.5-1.67.48h-.4v-1.17h.3c.85.02 1.5-.38 1.53-1.6v-8.92h7.6v11.6h-1.22V90.1h-5.17v7.63zM448.75 95h-7.3v1.6c-.03.7.1 1.3.43 1.75.68.88 1.4 1.2 2.62 1.2.9 0 1.54-.2 1.9-.52.8-.68 1.05-1.28 1.1-2.1h1.22c-.1 2.32-1.82 3.8-4.22 3.8-2.6 0-4.27-1.57-4.27-4.12v-3.8c0-2.5 1.72-4.1 4.27-4.1 2.57 0 4.25 1.57 4.25 4.1V95zm-1.24-2.2c.04-.7-.1-1.27-.43-1.7-.63-.9-1.36-1.2-2.57-1.2-1.9 0-3.06 1.05-3.06 2.9v1h6.07v-1zM458.85 94.04h1.65l4.13-5.13h1.48l-4.44 5.55 4.56 6.05h-1.5l-4-5.28h-1.87v5.28h-1.2V88.9h1.2v5.14zM482.3 92.56h-1.2c-.03-.66-.2-1.2-.53-1.58-.64-.8-1.35-1.08-2.5-1.08-1.88 0-3.05 1.05-3.05 2.9v3.8c-.02.7.1 1.3.44 1.75.68.88 1.4 1.2 2.62 1.2.9 0 1.54-.2 1.9-.52.8-.68 1.03-1.28 1.1-2.1h1.22c-.1 2.32-1.82 3.8-4.22 3.8-2.6 0-4.27-1.57-4.27-4.12v-3.8c0-2.5 1.73-4.1 4.28-4.1 2.5 0 4.1 1.46 4.22 3.86z"/>
  </g>
  <g>
    <path class="st1" d="M77.07 81.3l-17.4 9.93-.07-71.83L77 9.47l.07 71.83z"/>
    <path class="st1" d="M41.53 101.77L24.2 91.54l35.54-20.5 17.33 10.23-35.54 20.5z"/>
    <path class="st2" d="M6.27 81.27L24.1 71l17.46 10.53v20.24l-35.3-20.5z"/>
    <path class="st3" d="M6.27 60.76L24.1 50.48V71L6.27 81.28V60.76z"/>
    <path class="st4" d="M41.56 81.53l18.17-10.28-35.54-20.8L6.26 60.7l35.3 20.8z"/>
    <path class="st5" d="M6.27 40.33L24.1 30.05v20.52L6.27 60.85V40.33z"/>
    <path class="st6" d="M42.23 61.1l16.83-10.96L24.2 30 6.26 40.3l35.96 20.8z"/>
    <path class="st7" d="M6.27 19.8L24.1 9.5v20.53L6.27 40.3V19.8z"/>
    <path class="st7" d="M42.23 40.56L59.06 29.6 24.2 9.47 6.26 19.75l35.96 20.8z"/>
  </g>
</svg>
