<?xml version="1.0" encoding="utf-8"?>
<!-- Generator: Adobe Illustrator 20.0.0, SVG Export Plug-In . SVG Version: 6.00 Build 0)  -->
<svg version="1.1" id="Layer_1" xmlns="http://www.w3.org/2000/svg" xmlns:xlink="http://www.w3.org/1999/xlink" x="0px" y="0px"
	 viewBox="0 0 194 114" style="enable-background:new 0 0 194 114;" xml:space="preserve">
<style type="text/css">
	.st0{fill:#8EB8BD;}
	.st1{fill-rule:evenodd;clip-rule:evenodd;fill:#72BDC0;}
	.st2{fill-rule:evenodd;clip-rule:evenodd;fill:#275762;}
	.st3{fill-rule:evenodd;clip-rule:evenodd;fill:#D78132;}
	.st4{fill-rule:evenodd;clip-rule:evenodd;fill:#F8A23B;}
	.st5{fill-rule:evenodd;clip-rule:evenodd;fill:#C36A30;}
	.st6{fill-rule:evenodd;clip-rule:evenodd;fill:#E57A31;}
	.st7{opacity:0.5;fill-rule:evenodd;clip-rule:evenodd;fill:#72BDC0;}
</style>
<g>
	<path class="st0" d="M18.7065182,90.1685486c0,1.0302429-0.2809772,2.5601349-1.2489567,3.9337921
		c-1.5610218,1.99823-3.4031925,2.3416443-5.214057,2.3729477H5.1561446v-22.230278h6.9313483
		c1.3424845,0,2.3102913,0.2188797,3.5592489,0.8744049c1.9670906,0.9366302,2.7787991,3.8401794,2.7163601,5.338768v0.3747177
		c0,1.3740921-0.7806187,3.1220398-2.2480679,4.1527252c1.592371,1.0302429,2.5914841,2.7472763,2.5914841,4.4647446V90.1685486z
		 M14.3042126,80.4894867c-0.0313501-0.9679794-0.3123264-1.5608063-0.8117523-1.8419571
		c-0.4996862-0.281189-0.9679794-0.4060669-1.4363165-0.3747635H9.21486v4.7768555h3.0286446
		c0.9678059,0.0313492,2.0293579-0.3743362,2.060708-2.2789459V80.4894867z M14.6476278,89.48172
		c-0.0311317-0.9993362-0.3123264-1.6548157-0.8117523-1.9673157c-0.4683371-0.3434143-0.9679794-0.4996414-1.4987993-0.4683304
		H9.21486v5.4014587h2.9662056c0.4683361,0.0313034,0.9991121-0.1245346,1.5610209-0.4056778
		c0.5621262-0.2811508,0.8744097-0.9366302,0.9055414-1.9046555V89.48172z"/>
	<path class="st0" d="M25.2334442,91.3863678l-1.3111782,5.0889206h-4.0588913l5.9008446-22.230278h4.9331245l5.9011021,22.230278
		h-4.0589333l-1.3113937-5.0889206H25.2334442z M28.2307816,79.3343658l-1.9982262,8.0242004h3.9964523L28.2307816,79.3343658z"/>
	<path class="st0" d="M52.0267639,82.050293c0,1.0933304-0.2811508,2.6228333-1.18647,3.9964447
		c-0.4372063,0.6872711-0.9679832,1.1865234-1.5923729,1.5303268c-1.2489128,0.6555252-2.2167206,0.8740158-3.4969826,0.8740158
		h-2.9973373v8.0242081h-4.0587158v-22.230278h6.9313507c1.3425255,0,2.3102875,0.2188797,3.5592461,0.8744049
		c2.0295753,0.9679794,2.9348526,4.0277634,2.8412819,5.4636841V82.050293z M47.9990082,80.6453247
		c-0.0311317-0.9988937-0.3434143-1.6543808-0.905323-1.9355698c-0.5308228-0.3120651-1.0615959-0.4682922-1.5612411-0.4369888
		h-2.7788429v6.1505127h2.8412819c0.4996872,0.0313492,0.999115-0.0931396,1.529892-0.405632
		c0.5308189-0.3125458,0.8431015-0.9680252,0.8742332-1.99823V80.6453247z"/>
	<path class="st0" d="M68.5541382,92.4475327V74.2450104h4.0589371v22.230278H54.3794174v-22.230278h4.0587158v18.2025223h3.0286446
		V74.2450104h4.0589333v18.2025223H68.5541382z"/>
	<path class="st0" d="M80.0982666,91.3863678l-1.3112183,5.0889206H74.728157l5.9008865-22.230278h4.9330826l5.9011002,22.230278
		H87.404335l-1.3113937-5.0889206H80.0982666z M83.0956039,79.3343658l-1.9982224,8.0242004h3.9964447L83.0956039,79.3343658z"/>
	<path class="st0" d="M107.1102982,90.1685486c0,1.0302429-0.281189,2.5601349-1.2487411,3.9337921
		c-1.5612335,1.99823-3.4032364,2.3416443-5.2142715,2.3729477h-7.0873566v-22.230278h6.9310837
		c1.3427429,0,2.3103409,0.2188797,3.5594635,0.8744049c1.9668732,0.9366302,2.7786331,3.8401794,2.7164078,5.338768v0.3747177
		c0,1.3740921-0.7804031,3.1220398-2.2480698,4.1527252c1.5921555,1.0302429,2.5914841,2.7472763,2.5914841,4.4647446V90.1685486z
		 M102.708168,80.4894867c-0.0313492-0.9679794-0.3125-1.5608063-0.8121414-1.8419571
		c-0.4996872-0.281189-0.9680252-0.4060669-1.4363174-0.3747635h-2.8413315v4.7768555h3.0289078
		c0.9675446,0.0313492,2.0295334-0.3743362,2.0608826-2.2789459V80.4894867z M103.0511475,89.48172
		c-0.0309143-0.9993362-0.3120651-1.6548157-0.8113174-1.9673157c-0.4682922-0.3434143-0.9679794-0.4996414-1.49897-0.4683304
		h-3.1224823v5.4014587h2.9666443c0.4683304,0.0313034,0.9988937-0.1245346,1.5607986-0.4056778
		c0.5623474-0.2811508,0.8744125-0.9366302,0.9053268-1.9046555V89.48172z"/>
	<path class="st0" d="M122.9694443,89.7315598c0,1.3736649-0.3747177,3.0597763-1.4049683,4.5270081
		c-0.4996414,0.7181854-1.0929031,1.2800903-1.7483826,1.6235046c-1.2800827,0.6559143-2.2793732,0.8744125-3.5594635,0.8744125
		c-1.2800446,0-2.2480698-0.2184982-3.5903778-0.8744125c-2.0295334-1.0302429-3.1847-4.0587158-3.0911255-5.589035v-9.8971252
		c0-1.0929031,0.3434143-2.5605698,1.3113937-3.9028778c1.68573-2.0604477,3.5903778-2.3416367,5.4014587-2.4042969
		c1.2800446,0,2.2480316,0.2184982,3.5281143,0.9679794c1.99823,1.0306778,3.2469635,4.3403015,3.1533508,5.9637604h-4.05867
		c-0.0626602-1.2491302-0.4060745-2.0608826-1.0306854-2.4356003c-0.5932083-0.3743286-1.1238174-0.5310364-1.5921097-0.4996872
		c-0.4996872-0.0313492-1.0615921,0.1253586-1.654808,0.4369888c-0.5932617,0.281189-0.936676,0.9371033-0.9993286,1.9360046
		v9.8348541c0.0626526,1.0306778,0.4060669,1.6861572,0.9993286,2.0299606
		c0.5932159,0.311676,1.1551208,0.468338,1.654808,0.4370346c0.5305634,0.0313034,1.0929108-0.1253586,1.68573-0.5309906
		c0.5932159-0.4056854,0.9057159-1.2487411,0.9370651-2.4974823H122.9694443z"/>
	<path class="st0" d="M138.8633728,90.1371994c0,1.0925064-0.3125,2.5914841-1.2178345,3.9651413
		c-0.4682922,0.6554794-0.9988861,1.1551285-1.6548004,1.4989777c-1.2800446,0.6554794-2.2480316,0.87397-3.5903778,0.87397
		h-6.9939651v-22.230278h4.0591049v8.0242081h3.0284729c1.3426971,0,2.2793732,0.2184906,3.5281067,0.8744049
		c1.9668732,0.9989014,2.9348602,3.9964523,2.8412933,5.4945984V90.1371994z M134.8042603,88.6695786
		c-0.0309143-0.9989014-0.3434143-1.6548157-0.8739777-1.9355698c-0.5309906-0.3120728-1.0615997-0.468338-1.5299225-0.4374237
		h-2.9348602v6.1509476h2.8721924c0.468338,0.0313034,0.9993286-0.0936127,1.5612488-0.3743286
		c0.5619049-0.3125,0.8744049-0.9679794,0.9053192-1.9986649V88.6695786z"/>
	<path class="st0" d="M145.2874451,86.7962723v9.6790161h-4.0591431v-22.230278h4.0591431v8.5234604h0.6241302l5.7452698-8.5234604
		h4.7454987l-7.1497955,10.3967667l7.3374176,11.8335114h-4.9022064l-5.7761841-9.6790161H145.2874451z"/>
	<path class="st0" d="M158.6732635,96.4752884v-22.230278h4.0591431v12.707489l5.4014282-12.707489h4.0278015v22.230278h-4.0591583
		V84.0176468l-5.3391571,12.4576416H158.6732635z"/>
	<path class="st0" d="M175.3912048,96.4752884v-22.230278h4.0591125v12.707489l5.4014587-12.707489h4.0277557v22.230278h-4.0591125
		V84.0176468l-5.3391876,12.4576416H175.3912048z M176.9210968,67.3136597h3.1847382
		c0.031311,1.2800903,0.5932159,2.2480698,1.99823,2.2789841c1.4049683-0.0309143,1.9668732-0.9988937,1.99823-2.2789841h3.1846924
		c-0.1562653,3.5908127-2.466568,5.1202698-5.1829224,5.1202698
		C179.3876648,72.4339294,177.0773621,70.9044724,176.9210968,67.3136597z"/>
</g>
<g>
	<path class="st0" d="M37.4658737,106.2441101h0.5246201l1.7936935-2.223053h0.6392212l-1.9271164,2.4042969l1.9749413,2.6236572
		H39.8223l-1.7363281-2.2900009h-0.6200981v2.2900009h-0.524662v-2.2900009h-0.6393929l-1.7267876,2.2900009h-0.6487198
		l1.9749413-2.6236572l-1.9273262-2.4042969h0.6392174l1.784153,2.223053h0.5439148v-2.223053h0.524662V106.2441101z"/>
	<path class="st0" d="M44.1388817,109.0490112v-5.0279541h0.5248795v4.3694839l2.3564262-4.3694839h0.7061272v5.0279541h-0.5248795
		v-4.3030548l-2.3278542,4.3030548H44.1388817z"/>
	<path class="st0" d="M51.3755341,104.0210571h3.9784546v0.5152969h-1.727005v4.5126572h-0.524662v-4.5126572h-1.7267876
		V104.0210571z"/>
	<path class="st0" d="M59.6119041,107.8468399c0,0.2193604-0.0287933,0.4103241-0.0954819,0.5724869
		c-0.0571899,0.1621704-0.1622086,0.3146286-0.324379,0.4674759c-0.1621666,0.1431274-0.4007797,0.2193604-0.7251167,0.2100372
		h-0.1717072v-0.5153427h0.1240578c0.3719864,0.0093231,0.6582527-0.1621704,0.6677513-0.6867828v-3.8736572h3.2916222v5.0279541
		h-0.5248375v-4.5126572h-2.241909V107.8468399z"/>
	<path class="st0" d="M69.9642258,107.3602905c0,1.0971527-0.7442017,1.7839813-1.8413467,1.7839813
		c-1.125946,0-1.851059-0.6770706-1.851059-1.7839813v-1.6505585c0-1.0873947,0.744194-1.7746582,1.851059-1.7746582
		c1.1161804,0,1.8413467,0.6775055,1.8413467,1.7746582V107.3602905z M69.4393463,105.7097321
		c0.0095367-0.3052979-0.0571518-0.5534515-0.2002869-0.7439804c-0.2767258-0.3819656-0.5915222-0.5153351-1.1161804-0.5153351
		c-0.8206406,0-1.3262253,0.457756-1.3262253,1.2593155v1.6505585c-0.0095444,0.3053055,0.0476532,0.5534592,0.1907883,0.7537384
		c0.2957611,0.3815308,0.601059,0.5153427,1.135437,0.5153427c0.8108826,0,1.3164673-0.4674759,1.3164673-1.2690811V105.7097321z"/>
	<path class="st0" d="M73.8671036,104.0210571h1.9368286c0.9159012,0,1.5931931,0.3624496,1.6217651,1.3452606
		c-0.0285721,0.5436935-0.2479324,0.8968658-0.6296768,1.0780716c0.4579697,0.2002792,0.7442398,0.591568,0.7442398,1.173378
		c0,0.9446945-0.6201477,1.4312439-1.764946,1.4312439h-1.9082108V104.0210571z M75.7753143,104.5363541h-1.3833771v1.6599274
		h1.5550842c0.6201401,0.0097122,0.9349823-0.2193604,0.9635544-0.8299637
		C76.8820038,104.7459564,76.4145279,104.5266418,75.7753143,104.5363541z M75.746521,108.5336685
		c0.2005005,0,0.3817444-0.0190735,0.5344162-0.0474319c0.1621704-0.0381165,0.3243408-0.1147308,0.4865036-0.2197495
		c0.1621704-0.1045914,0.2481537-0.3243866,0.2481537-0.6487198c-0.0095367-0.6199265-0.4198608-0.9349823-1.068573-0.9349823
		h-1.5550842v1.8508835H75.746521z"/>
	<path class="st0" d="M81.3954849,109.0490112v-5.0279541h0.5248337v4.3694839l2.3564682-4.3694839h0.7060852v5.0279541h-0.5248337
		v-4.3030548l-2.3278961,4.3030548H81.3954849z"/>
	<path class="st0" d="M88.9714737,109.0490112v-5.0279541h0.5248795v4.3694839l2.3564682-4.3694839h0.7060852v5.0279541h-0.5248795
		v-4.3030548l-2.327858,4.3030548H88.9714737z M89.4389877,102.0749054h0.4674683
		c0.0859375,0.5055847,0.391243,0.7630157,0.858757,0.7630157c0.4674683,0,0.7727661-0.257431,0.85849-0.7630157h0.4676895
		c-0.1049805,0.8108902-0.6775131,1.1924133-1.3261795,1.1924133
		C90.1164932,103.2673187,89.5439606,102.8857956,89.4389877,102.0749054z"/>
	<path class="st0" d="M101.7063217,106.2441101h0.7156219l1.7932587-2.223053h0.6393967l-1.9270706,2.4042969l1.9749374,2.6236572
		h-0.6487122l-1.7365494-2.2900009h-0.8108826v2.2900009h-0.5250931v-5.0279541h0.5250931V106.2441101z"/>
	<path class="st0" d="M111.8871536,107.3602905c0,1.0971527-0.7444153,1.7839813-1.8415604,1.7839813
		c-1.1255188,0-1.8508911-0.6770706-1.8508911-1.7839813v-1.6505585c0-1.0873947,0.7444077-1.7746582,1.8508911-1.7746582
		c1.1161804,0,1.8415604,0.6775055,1.8415604,1.7746582V107.3602905z M111.3624878,105.7097321
		c0.0093231-0.3052979-0.057579-0.5534515-0.2007141-0.7439804c-0.2765121-0.3819656-0.5911331-0.5153351-1.1161804-0.5153351
		c-0.8202133,0-1.3262329,0.457756-1.3262329,1.2593155v1.6505585c-0.0093231,0.3053055,0.0478287,0.5534592,0.1909637,0.7537384
		c0.2959747,0.3815308,0.6012802,0.5153427,1.1352692,0.5153427c0.8108749,0,1.3168945-0.4674759,1.3168945-1.2690811V105.7097321z"
		/>
	<path class="st0" d="M115.7899933,109.0490112v-5.0279541h0.7537308l1.3257904,3.2151794l1.3262253-3.2151794h0.7728119v5.0279541
		h-0.5246658v-4.2932968l-1.3164673,3.1863861h-0.4962997l-1.3164673-3.1863861v4.2932968H115.7899933z"/>
	<path class="st0" d="M123.9573746,104.0210571h3.5776291v5.0279541h-0.5246201v-4.5126572h-2.5283966v4.5126572h-0.5246124
		V104.0210571z"/>
	<path class="st0" d="M132.4537354,107.8468399c0,0.2193604-0.0283661,0.4103241-0.0952606,0.5724869
		c-0.0572052,0.1621704-0.1622162,0.3146286-0.3243866,0.4674759c-0.1621704,0.1431274-0.4005585,0.2193604-0.7249451,0.2100372
		h-0.171875v-0.5153427h0.124054c0.3722076,0.0093231,0.6584625-0.1621704,0.6677399-0.6867828v-3.8736572h3.2914581v5.0279541
		h-0.5246582v-4.5126572h-2.2421265V107.8468399z"/>
	<path class="st0" d="M142.806488,106.6637497h-3.1677856v0.6965408c-0.0093231,0.3053055,0.0478668,0.5534592,0.1909485,0.7537384
		c0.2960205,0.3815308,0.6013336,0.5153427,1.1352692,0.5153427c0.3912354,0,0.6681824-0.0766678,0.8303528-0.2197571
		c0.3434143-0.2955856,0.4484406-0.5530167,0.4768372-0.906189h0.5246124
		c-0.0474243,1.0018845-0.7918396,1.6408463-1.8318024,1.6408463c-1.1255035,0-1.8508759-0.6770706-1.8508759-1.7839813v-1.6505585
		c0-1.0873947,0.7444-1.7746582,1.8508759-1.7746582c1.1161804,0,1.841568,0.6775055,1.841568,1.7746582V106.6637497z
		 M142.27211,105.7097321c0.0097046-0.3052979-0.0478668-0.5534515-0.1910095-0.7439804
		c-0.2765045-0.3819656-0.5911255-0.5153351-1.1161804-0.5153351c-0.8202057,0-1.3262177,0.457756-1.3262177,1.2593155v0.4386749
		h2.6334076V105.7097321z"/>
	<path class="st0" d="M147.1865387,106.2441101h0.7156219l1.7933044-2.223053h0.6394043l-1.927124,2.4042969l1.9749451,2.6236572
		h-0.6487122l-1.7365112-2.2900009h-0.8109283v2.2900009h-0.5246124v-5.0279541h0.5246124V106.2441101z"/>
	<path class="st0" d="M157.3572235,105.6047134h-0.5246582c-0.0093231-0.2862244-0.0859375-0.5149078-0.2290649-0.6868286
		c-0.2765198-0.3434143-0.5818176-0.4674683-1.0780792-0.4674683c-0.8202057,0-1.3262329,0.457756-1.3262329,1.2593155v1.6505585
		c-0.0093231,0.3053055,0.0478363,0.5534592,0.1909637,0.7537384c0.2959747,0.3815308,0.6012878,0.5153427,1.1352692,0.5153427
		c0.3912506,0,0.6681824-0.0766678,0.8303528-0.2197571c0.3434143-0.2955856,0.4386749-0.5530167,0.4674683-0.906189h0.5339813
		c-0.0474396,1.0018845-0.7918396,1.6408463-1.8318024,1.6408463c-1.1255035,0-1.8508911-0.6770706-1.8508911-1.7839813v-1.6505585
		c0-1.0873947,0.7444153-1.7746582,1.8508911-1.7746582C156.6035004,103.9350739,157.3097839,104.5647583,157.3572235,105.6047134z"
		/>
</g>
<g>
	<g>
		<path class="st1" d="M115.2645035,50.5817528l-11.2013245,6.3910332l-0.0448761-46.246273l11.2013168-6.3914242
			L115.2645035,50.5817528z"/>
	</g>
	<path class="st1" d="M92.3810425,63.7597046l-11.1551437-6.5870705l22.883461-13.1961594l11.155571,6.5870667
		L92.3810425,63.7597046z"/>
	<path class="st2" d="M69.6838989,50.5618515l11.4748764-6.6133003l11.2428131,6.7809753v13.0301781L69.6838989,50.5618515z"/>
	<path class="st3" d="M69.6838989,37.3555412l11.4748764-6.6175499v13.2105598l-11.4748764,6.617115V37.3555412z"/>
	<path class="st4" d="M92.4015884,50.7295265l11.6988449-6.6217575L81.2167969,30.7117157l-11.5328979,6.6201096
		L92.4015884,50.7295265z"/>
	<path class="st5" d="M69.6838989,24.203001l11.4748764-6.6175499v13.2105579l-11.4748764,6.617115V24.203001z"/>
	<path class="st6" d="M92.8351974,37.5769844l10.8316269-7.0553608L81.2167969,17.5591755l-11.5328979,6.6201077
		L92.8351974,37.5769844z"/>
	<path class="st7" d="M69.6838989,10.9780474L81.1587753,4.360498v13.210556l-11.4748764,6.6171169V10.9780474z"/>
	<path class="st7" d="M92.8351974,24.3520317l10.8316269-7.0553608l-22.4500275-12.96245l-11.5328979,6.6201081
		L92.8351974,24.3520317z"/>
</g>
</svg>
